<svg width="173" height="156" viewBox="0 0 173 156" fill="none" xmlns="http://www.w3.org/2000/svg">
<g clip-path="url(#clip0_1047_503)">
<path d="M2.10886 115.1V89.4264H11.0844C12.8729 89.4264 14.3479 89.7356 15.5096 90.3541C16.6712 90.9641 17.5362 91.7873 18.1045 92.8236C18.6727 93.8515 18.9569 94.9923 18.9569 96.2459C18.9569 97.349 18.7605 98.2599 18.3677 98.9787C17.9833 99.6974 17.4735 100.266 16.8383 100.684C16.2116 101.101 15.5305 101.411 14.795 101.611V101.862C15.5806 101.912 16.3703 102.188 17.1643 102.689C17.9582 103.191 18.6226 103.909 19.1575 104.845C19.6923 105.781 19.9597 106.926 19.9597 108.28C19.9597 109.567 19.6672 110.725 19.0822 111.753C18.4972 112.78 17.5738 113.595 16.3118 114.197C15.0499 114.799 13.4077 115.1 11.3853 115.1H2.10886ZM5.21772 112.342H11.3853C13.4161 112.342 14.8577 111.949 15.7101 111.163C16.5709 110.369 17.0013 109.408 17.0013 108.28C17.0013 107.411 16.7798 106.609 16.3369 105.873C15.894 105.13 15.263 104.536 14.444 104.093C13.625 103.642 12.6556 103.416 11.5357 103.416H5.21772V112.342ZM5.21772 100.709H10.9842C11.9202 100.709 12.7642 100.525 13.5164 100.157C14.2769 99.7893 14.8786 99.2712 15.3215 98.6026C15.7728 97.934 15.9985 97.1484 15.9985 96.2459C15.9985 95.1177 15.6057 94.1608 14.8201 93.3752C14.0345 92.5813 12.7893 92.1843 11.0844 92.1843H5.21772V100.709ZM24.6669 115.1V95.8447H27.6253V115.1H24.6669ZM26.1712 92.6356C25.5946 92.6356 25.0973 92.4392 24.6794 92.0464C24.2699 91.6536 24.0652 91.1814 24.0652 90.6299C24.0652 90.0783 24.2699 89.6061 24.6794 89.2133C25.0973 88.8205 25.5946 88.6241 26.1712 88.6241C26.7478 88.6241 27.2409 88.8205 27.6504 89.2133C28.0683 89.6061 28.2772 90.0783 28.2772 90.6299C28.2772 91.1814 28.0683 91.6536 27.6504 92.0464C27.2409 92.4392 26.7478 92.6356 26.1712 92.6356ZM40.3146 115.501C38.7101 115.501 37.2935 115.095 36.065 114.285C34.8365 113.466 33.8754 112.312 33.1818 110.825C32.4882 109.329 32.1413 107.561 32.1413 105.522C32.1413 103.5 32.4882 101.745 33.1818 100.257C33.8754 98.7697 34.8407 97.6206 36.0776 96.81C37.3144 95.9993 38.7435 95.594 40.3648 95.594C41.6184 95.594 42.6087 95.8029 43.3357 96.2208C44.0712 96.6303 44.6311 97.0983 45.0155 97.6248C45.4083 98.1429 45.7134 98.5692 45.9306 98.9034H46.1814V89.4264H49.1398V115.1H46.2816V112.141H45.9306C45.7134 112.492 45.4041 112.935 45.003 113.47C44.6019 113.996 44.0294 114.469 43.2856 114.887C42.5418 115.296 41.5515 115.501 40.3146 115.501ZM40.7158 112.843C41.9025 112.843 42.9054 112.534 43.7244 111.916C44.5434 111.289 45.166 110.424 45.5922 109.321C46.0184 108.209 46.2315 106.926 46.2315 105.472C46.2315 104.035 46.0226 102.777 45.6047 101.699C45.1869 100.612 44.5684 99.7684 43.7494 99.1667C42.9304 98.5566 41.9192 98.2516 40.7158 98.2516C39.4622 98.2516 38.4176 98.5733 37.5818 99.2168C36.7545 99.852 36.1319 100.717 35.714 101.812C35.3045 102.898 35.0998 104.118 35.0998 105.472C35.0998 106.843 35.3087 108.088 35.7266 109.208C36.1528 110.319 36.7796 111.205 37.6069 111.865C38.4426 112.517 39.4789 112.843 40.7158 112.843ZM72.9702 115.501C71.1149 115.501 69.5145 115.091 68.169 114.272C66.8319 113.445 65.7998 112.292 65.0727 110.812C64.354 109.325 63.9946 107.595 63.9946 105.623C63.9946 103.65 64.354 101.912 65.0727 100.408C65.7998 98.8951 66.811 97.7167 68.1063 96.8727C69.4101 96.0202 70.9311 95.594 72.6694 95.594C73.6722 95.594 74.6625 95.7612 75.6403 96.0954C76.6181 96.4297 77.5081 96.9729 78.3104 97.7251C79.1127 98.4689 79.752 99.455 80.2284 100.684C80.7048 101.912 80.9429 103.425 80.9429 105.221V106.475H66.1006V103.918H77.9344C77.9344 102.831 77.7171 101.862 77.2825 101.009C76.8563 100.157 76.2462 99.4843 75.4523 98.9912C74.6667 98.4981 73.7391 98.2516 72.6694 98.2516C71.491 98.2516 70.4714 98.5441 69.6106 99.1291C68.7582 99.7057 68.1022 100.458 67.6425 101.386C67.1829 102.313 66.9531 103.308 66.9531 104.369V106.074C66.9531 107.528 67.2038 108.761 67.7052 109.772C68.215 110.775 68.9212 111.539 69.8237 112.066C70.7263 112.584 71.7751 112.843 72.9702 112.843C73.7474 112.843 74.4494 112.735 75.0762 112.517C75.7114 112.292 76.2588 111.957 76.7184 111.514C77.178 111.063 77.5332 110.503 77.7839 109.835L80.6421 110.637C80.3412 111.606 79.8356 112.459 79.1253 113.194C78.4149 113.921 77.5374 114.49 76.4928 114.899C75.4481 115.3 74.2739 115.501 72.9702 115.501Z" fill="#43AF6D"/>
<path d="M93.5664 89.4264H97.1266L104.247 101.411H104.548L111.668 89.4264H115.228L105.952 104.519V115.1H102.843V104.519L93.5664 89.4264ZM121.997 115.551C120.777 115.551 119.67 115.321 118.675 114.861C117.681 114.393 116.891 113.721 116.306 112.843C115.721 111.957 115.429 110.888 115.429 109.634C115.429 108.531 115.646 107.637 116.081 106.951C116.515 106.258 117.096 105.715 117.823 105.322C118.55 104.929 119.352 104.636 120.23 104.444C121.116 104.244 122.006 104.085 122.9 103.968C124.07 103.817 125.019 103.705 125.746 103.629C126.481 103.546 127.016 103.408 127.35 103.216C127.693 103.024 127.864 102.689 127.864 102.213V102.113C127.864 100.876 127.526 99.9147 126.849 99.2294C126.18 98.5441 125.165 98.2014 123.803 98.2014C122.39 98.2014 121.283 98.5107 120.481 99.1291C119.678 99.7475 119.114 100.408 118.788 101.11L115.98 100.107C116.482 98.9369 117.15 98.0259 117.986 97.3741C118.83 96.7139 119.749 96.2542 120.744 95.9952C121.747 95.7277 122.733 95.594 123.702 95.594C124.321 95.594 125.031 95.6692 125.833 95.8197C126.644 95.9617 127.425 96.2584 128.178 96.7097C128.938 97.161 129.569 97.8421 130.07 98.753C130.572 99.6639 130.823 100.884 130.823 102.413V115.1H127.864V112.492H127.714C127.513 112.91 127.179 113.357 126.711 113.834C126.243 114.31 125.62 114.715 124.843 115.049C124.066 115.384 123.117 115.551 121.997 115.551ZM122.449 112.893C123.619 112.893 124.605 112.663 125.407 112.204C126.218 111.744 126.828 111.151 127.237 110.424C127.655 109.697 127.864 108.932 127.864 108.13V105.422C127.739 105.572 127.463 105.71 127.037 105.836C126.619 105.953 126.134 106.057 125.583 106.149C125.039 106.233 124.509 106.308 123.991 106.375C123.481 106.433 123.067 106.483 122.75 106.525C121.981 106.625 121.262 106.788 120.593 107.014C119.933 107.231 119.398 107.561 118.989 108.004C118.588 108.439 118.387 109.032 118.387 109.784C118.387 110.812 118.767 111.59 119.528 112.116C120.297 112.634 121.27 112.893 122.449 112.893ZM138.98 108.08L138.93 104.419H139.532L147.956 95.8447H151.616L142.641 104.921H142.39L138.98 108.08ZM136.222 115.1V89.4264H139.181V115.1H136.222ZM148.457 115.1L140.936 105.572L143.042 103.517L152.218 115.1H148.457ZM162.453 115.501C160.715 115.501 159.19 115.087 157.878 114.26C156.574 113.432 155.555 112.275 154.819 110.787C154.092 109.3 153.729 107.561 153.729 105.572C153.729 103.567 154.092 101.816 154.819 100.32C155.555 98.8241 156.574 97.6624 157.878 96.8351C159.19 96.0077 160.715 95.594 162.453 95.594C164.192 95.594 165.713 96.0077 167.016 96.8351C168.328 97.6624 169.348 98.8241 170.075 100.32C170.811 101.816 171.178 103.567 171.178 105.572C171.178 107.561 170.811 109.3 170.075 110.787C169.348 112.275 168.328 113.432 167.016 114.26C165.713 115.087 164.192 115.501 162.453 115.501ZM162.453 112.843C163.774 112.843 164.86 112.505 165.713 111.828C166.565 111.151 167.196 110.261 167.606 109.158C168.015 108.055 168.22 106.859 168.22 105.572C168.22 104.285 168.015 103.086 167.606 101.975C167.196 100.863 166.565 99.9648 165.713 99.2795C164.86 98.5942 163.774 98.2516 162.453 98.2516C161.133 98.2516 160.047 98.5942 159.194 99.2795C158.342 99.9648 157.711 100.863 157.301 101.975C156.892 103.086 156.687 104.285 156.687 105.572C156.687 106.859 156.892 108.055 157.301 109.158C157.711 110.261 158.342 111.151 159.194 111.828C160.047 112.505 161.133 112.843 162.453 112.843Z" fill="#F0AB00"/>
<path d="M122.264 14.0259C115.702 14.436 109.14 14.8461 102.578 15.2562C83.7134 16.4865 64.4382 17.3068 45.5732 18.5371C39.0114 18.9472 36.5508 21.818 36.5508 28.3797C36.5508 34.5314 36.5508 40.683 36.5508 46.4245C36.5508 52.1661 36.5508 57.9076 36.5508 63.6492C36.5508 64.0593 36.5508 64.4694 36.5508 64.4694C36.9609 71.8514 39.4215 74.312 46.3934 74.312C48.8541 74.312 50.9046 74.312 53.3653 74.312C57.0563 73.9019 58.2866 75.9525 58.2866 79.2333C58.2866 81.2839 58.2866 83.3344 58.2866 85.7951C58.2866 87.4355 57.4664 89.8962 59.1068 90.7164C60.7473 91.5366 61.5675 89.076 62.7978 87.8456C66.0787 84.9749 68.9495 82.1041 71.8202 78.8232C74.691 75.5423 77.9719 73.9019 82.4831 74.312C91.0954 74.7221 99.7077 74.312 108.73 74.312C113.241 74.312 116.522 72.6716 118.163 68.1604C122.674 53.3964 126.775 39.0426 131.286 24.2786C132.927 18.127 128.826 13.6158 122.264 14.0259ZM124.314 27.9696C120.623 41.0931 116.522 53.8065 112.831 66.93C111.601 71.0311 108.32 72.6716 104.629 72.6716C96.8369 72.6716 89.0448 73.0817 81.2528 72.6716C77.1517 72.6716 74.2809 73.9019 71.8202 76.7727C69.3596 79.6434 66.4888 82.1041 63.618 84.9749C62.7978 85.7951 61.5675 87.8456 60.3372 87.4355C58.6967 86.6153 59.5169 84.5648 59.5169 82.9243C59.5169 80.8738 59.5169 79.2333 59.5169 77.1828C59.5169 73.9019 58.2866 72.6716 55.0057 72.6716C52.9552 72.6716 50.9046 72.6716 48.8541 72.6716C42.7024 72.6716 40.2418 70.2109 40.2418 64.0593C40.2418 63.6492 40.2418 63.6492 40.2418 63.2391C40.2418 58.3177 40.2418 52.9863 40.2418 48.065C40.2418 42.7336 40.2418 37.4021 40.2418 31.6606C40.2418 25.9191 42.7024 23.4584 48.444 23.0483C65.2585 22.2281 82.073 20.9977 99.2976 20.1775C105.039 19.7674 110.781 19.3573 116.932 18.9472C122.674 18.127 125.955 22.2281 124.314 27.9696Z" fill="#F0AB00"/>
<path d="M70.1797 42.7336C70.1797 43.1437 70.5898 43.1437 70.5898 43.1437C72.6403 46.0145 74.2808 48.8853 76.3313 52.1661C76.7414 52.5763 77.1516 52.9864 77.5617 52.5763C80.0223 50.9358 82.0729 49.7055 84.5335 48.065C85.3538 47.6549 85.3538 47.2448 84.9436 46.8347C82.8931 43.964 81.2527 41.0932 79.2021 37.8123C78.792 36.9921 78.3819 36.9921 77.9718 37.4022C75.5111 39.0426 73.4606 40.273 70.9999 41.9134C70.5898 42.3235 70.1797 42.3235 70.1797 42.7336Z" fill="#43AF6D"/>
<path d="M44.3426 67.7506C46.3931 66.5203 48.8538 66.1102 50.9043 64.8798C55.4156 62.0091 59.5167 59.1383 64.0279 55.8574C66.8986 53.8069 69.7694 51.7563 72.6402 49.2957C73.0503 48.8856 73.4604 48.4754 73.0503 48.0653C72.6402 47.6552 72.2301 47.2451 71.8199 47.6552C64.438 51.7563 57.056 55.8574 49.674 60.7787C48.0336 62.0091 45.983 63.2394 44.7527 64.8798C44.3426 65.2899 43.9325 65.2899 43.5224 65.7001C43.1123 66.1102 42.7021 66.5203 43.1123 66.9304C43.5224 67.7506 43.9325 67.7506 44.3426 67.7506Z" fill="#43AF6D"/>
<path d="M76.7422 34.5312C75.922 34.5312 75.1018 34.9413 74.2815 35.3514C72.6411 36.1716 71.0006 37.402 69.3602 38.6323C68.54 39.4525 68.1299 40.2727 68.1299 41.093C68.1299 41.5031 68.1299 42.3233 68.54 42.3233C68.9501 42.7334 69.3602 42.3233 69.7703 41.9132C72.6411 40.2727 75.1017 38.2222 77.9725 36.5818C78.3826 36.1716 79.2029 36.1716 78.7927 35.3514C78.7927 34.5312 77.9725 34.5312 77.1523 34.1211C77.1523 34.5312 76.7422 34.5312 76.7422 34.5312Z" fill="#43AF6D"/>
<path d="M79.2024 55.8574C80.0226 55.4473 80.4327 55.4473 81.2529 55.0372C82.8933 54.217 84.5338 52.9867 86.1742 51.7563C86.9944 50.9361 87.8147 50.1159 87.8147 48.8856C87.8147 48.4754 87.8147 48.0653 87.4046 47.6552C86.9944 47.2451 86.5843 47.6552 86.1742 48.0653C83.3035 49.7058 80.8428 51.7563 77.972 53.3968C77.5619 53.8069 76.7417 53.8069 77.1518 54.6271C77.1518 55.4473 77.972 55.4473 78.3821 55.8574C77.972 55.8574 78.3821 55.8574 79.2024 55.8574Z" fill="#43AF6D"/>
<path d="M103.81 25.0987C103.81 23.8684 102.99 23.0481 101.76 23.4582C97.2486 24.6886 92.3273 24.6886 87.816 26.7391C84.9453 30.02 84.1251 34.1211 83.3048 38.2222C86.1756 35.7615 86.9958 31.6604 88.6363 28.3796C92.7374 27.5593 96.8385 26.7391 100.94 26.329C101.35 27.1492 100.94 27.5593 100.529 28.3796C96.4284 39.4525 91.9171 50.5255 87.816 61.5985C87.4059 62.4187 87.4059 63.2389 86.5857 63.2389C83.3048 64.0591 80.4341 64.4692 77.1532 65.2895C75.1026 65.6996 74.2824 65.2894 75.1026 62.8288C75.5128 62.4187 75.5128 61.5985 75.1026 61.1884C74.6925 61.5985 74.6925 62.0086 74.2824 62.0086C71.8218 63.649 69.7712 69.3905 71.0015 71.8512C71.4117 71.8512 71.4117 71.4411 71.8218 71.4411C73.0521 71.031 74.2824 71.031 75.5127 70.6209C89.0464 67.7501 85.7655 69.8007 91.0969 57.4974C93.1475 55.8569 93.9677 52.9862 94.7879 50.5255C96.4284 44.784 98.889 39.0424 101.35 33.3009C101.35 30.8402 103.4 27.9695 103.81 25.0987Z" fill="#43AF6D"/>
</g>
<defs>
<clipPath id="clip0_1047_503">
<rect width="173" height="173" fill="white" transform="translate(0 -17)"/>
</clipPath>
</defs>
</svg>
